<?xml version="1.0" encoding="utf-8"?>
<!-- Generator: Adobe Illustrator 23.0.5, SVG Export Plug-In . SVG Version: 6.00 Build 0)  -->
<svg version="1.1" id="Capa_1" xmlns="http://www.w3.org/2000/svg" xmlns:xlink="http://www.w3.org/1999/xlink" x="0px" y="0px"
	 viewBox="0 0 762.4 337" style="enable-background:new 0 0 762.4 337;" xml:space="preserve">
<style type="text/css">
	.st0{fill:#1B2127;}
	.st1{fill:#FFFFFF;stroke:#000000;stroke-miterlimit:10;}
	.st2{fill:#1B2127;stroke:#000000;stroke-miterlimit:10;}
</style>
<title>logo</title>
<g id="Capa_3">
	<rect class="st0" width="804" height="351"/>
</g>
<g id="Capa_4">
	<path class="st1" d="M384.4,76.6h18.9c4.5,0,8.9,3.4,13.2,10c0.6,1.2,1,2.6,1,3.9v67.4c0,0.2-0.2,0.4-0.6,0.6h-15
		c-0.2,0-0.4-0.2-0.6-0.6v-32.2h-16.6v32.1c0,0.2-0.2,0.4-0.6,0.6h-15c-0.2,0-0.4-0.2-0.6-0.6V91.2c0-5.4,3.5-10,10.4-13.7
		C380.7,76.8,382.6,76.5,384.4,76.6z M385.2,93.1v16h16v-16H385.2z"/>
	<path class="st1" d="M441.6,76.7h1.1c0.4,0,5.6,5.1,15.7,15.6h0.4v-15c0-0.2,0.2-0.4,0.6-0.6h1.5c4.5,0,8.9,3.2,13.2,9.7
		c0.7,1.4,1.2,2.9,1.2,4.4v53.7c0,3.9-3.1,8-9.4,12.6c-1.1,0.7-2.5,1.2-4,1.2h-2.2c-0.2,0-0.4-0.2-0.6-0.6v-40
		c0-0.6-1.7-2.7-5.4-6.2l-10.7-11h-0.4v57.2c0,0.2-0.2,0.4-0.6,0.6h-3.4c-3.1,0-6.7-3-11-9.1c-0.7-1.2-1.2-2.6-1.2-4.1V90.7
		c0-5.1,3.5-9.5,10.6-13.1C438.6,77.1,440.1,76.8,441.6,76.7z"/>
	<path class="st1" d="M499.4,76.6c0.6-0.1,1.1,0.4,1.2,0.9c0,0.1,0,0.2,0,0.4v64.4H517V77.8c-0.1-0.6,0.4-1.1,0.9-1.2
		c0.1,0,0.2,0,0.4,0h0.4c5.4,0,10.1,3.6,14.1,10.7c0.4,0.7,0.5,1.5,0.4,2.2v54.9c0,3.6-3.1,7.9-9.4,12.5c-1.5,0.9-3.1,1.4-4.7,1.5
		h-21.4c-4.2,0-8.5-3.4-12.6-10.1c-0.5-1.1-0.7-2.2-0.9-3.5v-54c0-4.5,3-8.6,9.1-12.6C495.3,77,497.2,76.5,499.4,76.6z"/>
	<path class="st1" d="M557.3,76.6h33.2c0.2,0,0.4,0.2,0.6,0.6v15.1c0,0.2-0.2,0.4-0.6,0.6h-32.1v16.6h15.7c0.2,0,0.4,0.2,0.6,0.6v15
		c0,0.2-0.2,0.4-0.6,0.6h-15.7v16.5h32.1c0.2,0,0.4,0.2,0.6,0.6v15c0,0.2-0.2,0.4-0.6,0.6h-34.3c-4.1,0-8.4-3.4-12.6-10
		c-0.7-1.4-1.2-2.9-1.2-4.4V90.7c0-4.9,3.5-9.4,10.6-13.2C554.2,77,555.8,76.6,557.3,76.6z"/>
	<path class="st1" d="M614.6,76.6h1c0.2,0,0.4,0.2,0.6,0.6v65.1h32.1c0.2,0,0.4,0.2,0.6,0.6v15c0,0.2-0.2,0.4-0.6,0.6h-34.8
		c-4.4,0-8.7-3.6-13.1-11c-0.2-1-0.4-1.9-0.4-2.9v-54c0-4.7,3.4-9.1,10-13.1C611.5,76.8,613.1,76.6,614.6,76.6z"/>
	<path class="st1" d="M378.2,168.2h33.2c0.2,0,0.4,0.2,0.6,0.6V184c0,0.2-0.2,0.4-0.6,0.6h-32.2v16.6H395c0.2,0,0.4,0.2,0.6,0.6v15
		c0,0.2-0.2,0.4-0.6,0.6h-15.7V234h32.2c0.2,0,0.4,0.2,0.6,0.6v15c0,0.2-0.2,0.4-0.6,0.6H377c-4.1,0-8.4-3.4-12.6-10
		c-0.7-1.4-1.2-2.9-1.2-4.4v-53.6c0-4.9,3.5-9.4,10.6-13.2C375.1,168.6,376.7,168.2,378.2,168.2z"/>
	<path class="st1" d="M435.6,168.2h1c0.2,0,0.4,0.2,0.6,0.6v65.1h32.1c0.2,0,0.4,0.2,0.6,0.6v15c0,0.2-0.2,0.4-0.6,0.6h-34.7
		c-4.4,0-8.7-3.6-13.1-11c-0.2-1-0.4-1.9-0.4-2.9V182c0-4.7,3.4-9.1,10-13.1C432.4,168.6,433.9,168.2,435.6,168.2z"/>
	<path class="st1" d="M494.1,168.2h33.2c0.2,0,0.4,0.2,0.6,0.6V184c0,0.2-0.2,0.4-0.6,0.6h-32.1v16.6H511c0.2,0,0.4,0.2,0.6,0.6v15
		c0,0.2-0.2,0.4-0.6,0.6h-15.7V234h32.1c0.2,0,0.4,0.2,0.6,0.6v15c0,0.2-0.2,0.4-0.6,0.6h-34.5c-4.1,0-8.4-3.4-12.6-10
		c-0.7-1.4-1.2-2.9-1.2-4.4v-53.6c0-4.9,3.5-9.4,10.6-13.2C491,168.6,492.5,168.2,494.1,168.2z"/>
	<path class="st1" d="M551.9,168.4h1c0.4,0,5.6,5.1,15.7,15.6h0.4v-15c0-0.2,0.2-0.4,0.6-0.6h1.5c4.5,0,8.9,3.2,13.2,9.7
		c0.7,1.4,1.2,2.9,1.2,4.4v53.7c0,3.9-3.1,8-9.4,12.6c-1.1,0.7-2.5,1.2-4,1.2H570c-0.2,0-0.4-0.2-0.6-0.6v-40c0-0.6-1.7-2.7-5.4-6.2
		l-10.7-11h-0.4v57.2c0,0.2-0.2,0.4-0.6,0.6h-3.4c-3.1,0-6.7-3-11-9.1c-0.7-1.2-1.2-2.6-1.2-4.1v-54.6c0-5.1,3.5-9.5,10.6-13.1
		C548.9,168.7,550.4,168.5,551.9,168.4z"/>
	<path class="st1" d="M595.9,168.2h33.3c4.9,0,9.5,3.5,13.7,10.6c0.4,0.9,0.6,1.9,0.6,2.9v54.6c0,4.5-3.4,8.7-10,12.9
		c-1.4,0.6-2.9,1-4.4,1h-34c-0.2,0-0.4-0.2-0.6-0.6v-80c-0.1-0.6,0.4-1.1,0.9-1.2C595.6,168.2,595.8,168.2,595.9,168.2z
		 M611.5,184.7v49h15.7v-49H611.5z"/>
	<path class="st1" d="M667.7,168.2h33.2c0.2,0,0.4,0.2,0.6,0.6V184c0,0.2-0.2,0.4-0.6,0.6h-32.2v16.6h15.7c0.2,0,0.4,0.2,0.6,0.6v15
		c0,0.2-0.2,0.4-0.6,0.6h-15.7V234h32.1c0.2,0,0.4,0.2,0.6,0.6v15c0,0.2-0.2,0.4-0.6,0.6h-34.3c-4.1,0-8.4-3.4-12.6-10
		c-0.7-1.4-1.2-2.9-1.2-4.4v-53.6c0-4.9,3.5-9.4,10.6-13.2C664.6,168.6,666.2,168.2,667.7,168.2z"/>
	<path class="st1" d="M726.3,168.2h18.2c5.6,0,10.5,3.9,14.5,11.6c0.2,0.7,0.4,1.6,0.4,2.5v0.2c0,1-2.2,4.7-6.9,11.2l-25.7,39.8v0.2
		h32c0.2,0,0.4,0.2,0.6,0.6v1.2c0,4.2-3.4,8.7-10,13.2c-1.4,0.7-2.9,1.2-4.4,1.2h-20.7c-4.2,0-8.5-3.4-12.6-10
		c-0.9-1.4-1.4-3-1.5-4.5c0-0.7,7.5-12.2,22.4-34.6c1.4-2.4,4.7-7.6,10.1-15.7v-0.6h-31.2c-0.6,0.1-1.1-0.4-1.2-0.9
		c0-0.1,0-0.2,0-0.4c0-5.6,3.5-10.4,10.6-14.1C722.5,168.5,724.4,168.1,726.3,168.2z"/>
</g>
<g>
	<path class="st1" d="M180.2,176.4l115-146.2v91.4l57.6-69.2V256c0,0-38.3,71.8-85.7-3.9l28.1-34v23.5c0,0,11.5,20.9,25.6,1.2v-94
		L214.7,275.5c0,0-34.5,27.5-71.6,0l-104.9-128v95.4c0,0,14.1,20.9,25.6,0v-24.8l25.6,35.2c0,0-35.8,86.2-84.4,0v-197l53.7,61.3
		L59.9,30L180.2,176.4z"/>
	<path class="st2" d="M91.9,112.4v39.2l65.2,84.9c-0.6,0,21.7,20.9,42.2,0l65.2-82.3l1.2-43.1L180,215.5L91.9,112.4z"/>
	<ellipse class="st0" cx="51.1" cy="242.3" rx="13.5" ry="14.4"/>
	<ellipse class="st0" cx="308.1" cy="242.3" rx="13.5" ry="14.4"/>
</g>
</svg>
